<svg width="415" height="427" viewBox="0 0 415 427" fill="none" xmlns="http://www.w3.org/2000/svg">
<path d="M360 308.09C360 381.206 343 427 193.5 427C51 427 24 381.206 24 308.09C24 234.973 95.2162 212 188 212C280.784 212 360 234.973 360 308.09Z" fill="#373737"/>
<path d="M414.5 334.227C414.5 357.423 386.681 359.227 361 359.227C334.5 354.727 321.5 344.227 321.5 334.227C316.986 329.727 346.5 306.456 368 305.227C393.681 305.227 414.5 311.031 414.5 334.227Z" fill="#373737"/>
<path d="M310.472 152.524C310.472 226.725 256.637 274.226 182.524 274.226C108.411 274.226 52.5 226.725 52.5 152.524C52.5 113.227 56 -30.7732 191.91 50.4205C303 -26.2734 310.472 110.727 310.472 152.524Z" fill="#373737"/>
<path d="M189 200L186.402 195.5L191.598 195.5L189 200Z" fill="#D9D9D9"/>
<ellipse cx="128.5" cy="143.727" rx="35.5" ry="37.5" fill="#0E0E0E"/>
<ellipse cx="238.5" cy="144.227" rx="32.5" ry="32" fill="#0E0E0E"/>
<path d="M231 130.227C231 134.645 227.866 138.227 224 138.227C220.134 138.227 217 134.645 217 130.227C217 125.808 220.134 122.227 224 122.227C227.866 122.227 231 125.808 231 130.227Z" fill="#F6F6F6"/>
<path d="M252 150.227C252 153.54 248.866 156.227 245 156.227C241.134 156.227 238 153.54 238 150.227C238 146.913 241.134 144.227 245 144.227C248.866 144.227 252 146.913 252 150.227Z" fill="#F6F6F6"/>
<path d="M257 132.227C257 134.436 254.985 136.227 252.5 136.227C250.015 136.227 248 134.436 248 132.227C248 130.017 250.015 128.227 252.5 128.227C254.985 128.227 257 130.017 257 132.227Z" fill="#F6F6F6"/>
<circle cx="128.5" cy="127.727" r="10.5" fill="#F6F6F6"/>
<ellipse cx="110" cy="152.727" rx="8" ry="7.5" fill="#F6F6F6"/>
<circle cx="136.5" cy="150.727" r="5.5" fill="#F6F6F6"/>
<line x1="169" y1="193.5" x2="193" y2="193.5" stroke="black" stroke-width="3"/>
<line x1="272.679" y1="51.6169" x2="303.679" y2="25.6169" stroke="black"/>
<line x1="336.679" y1="287.617" x2="367.679" y2="261.617" stroke="black"/>
<line x1="293.812" y1="95.5368" x2="325.812" y2="82.5368" stroke="black"/>
<line x1="320.812" y1="261.537" x2="352.812" y2="248.537" stroke="black"/>
<line x1="74.7912" y1="83.4543" x2="37.7912" y2="66.4543" stroke="black"/>
<line x1="55.7912" y1="266.454" x2="18.7912" y2="249.454" stroke="black"/>
<line x1="37.7912" y1="305.454" x2="0.791248" y2="288.454" stroke="black"/>
<line x1="117.536" y1="40.1857" x2="101.536" y2="0.185696" stroke="black"/>
<line x1="82.5358" y1="59.1857" x2="66.5358" y2="19.1857" stroke="black"/>
</svg>
