<svg width="422" height="427" viewBox="0 0 422 427" fill="none" xmlns="http://www.w3.org/2000/svg">
<line x1="47.7912" y1="307.454" x2="10.7912" y2="290.454" stroke="black"/>
<line x1="43.7912" y1="324.454" x2="6.79125" y2="307.454" stroke="black"/>
<line x1="41.1404" y1="333.48" x2="0.140451" y2="345.48" stroke="black"/>
<line x1="42.1404" y1="359.48" x2="1.14045" y2="371.48" stroke="black"/>
<path d="M367 308.09C367 381.206 350 427 200.5 427C58 427 31 381.206 31 308.09C31 234.973 102.216 212 195 212C287.784 212 367 234.973 367 308.09Z" fill="#373737"/>
<path d="M421.5 334.227C421.5 357.423 393.681 359.227 368 359.227C341.5 354.727 328.5 344.227 328.5 334.227C323.985 329.727 353.5 306.456 375 305.227C400.681 305.227 421.5 311.031 421.5 334.227Z" fill="#373737"/>
<path d="M317.472 152.524C317.472 226.725 263.637 274.226 189.524 274.226C115.411 274.226 59.5 226.725 59.5 152.524C59.5 113.227 63 -30.7732 198.91 50.4205C310 -26.2734 317.472 110.727 317.472 152.524Z" fill="#373737"/>
<path d="M317.472 152.524C317.472 226.725 263.637 274.226 189.524 274.226C115.411 274.226 59.5 226.725 59.5 152.524C59.5 113.227 63 -30.7732 198.91 50.4205C310 -26.2734 317.472 110.727 317.472 152.524Z" fill="#373737"/>
<ellipse cx="134.5" cy="125.5" rx="35.5" ry="37.5" fill="#0E0E0E"/>
<ellipse cx="244.5" cy="126" rx="32.5" ry="32" fill="#0E0E0E"/>
<path d="M237 112C237 116.418 233.866 120 230 120C226.134 120 223 116.418 223 112C223 107.582 226.134 104 230 104C233.866 104 237 107.582 237 112Z" fill="#F6F6F6"/>
<path d="M258 132C258 135.314 254.866 138 251 138C247.134 138 244 135.314 244 132C244 128.686 247.134 126 251 126C254.866 126 258 128.686 258 132Z" fill="#F6F6F6"/>
<path d="M263 114C263 116.209 260.985 118 258.5 118C256.015 118 254 116.209 254 114C254 111.791 256.015 110 258.5 110C260.985 110 263 111.791 263 114Z" fill="#F6F6F6"/>
<circle cx="134.5" cy="109.5" r="10.5" fill="#F6F6F6"/>
<ellipse cx="116" cy="134.5" rx="8" ry="7.5" fill="#F6F6F6"/>
<circle cx="142.5" cy="132.5" r="5.5" fill="#F6F6F6"/>
<line x1="279.679" y1="51.6169" x2="310.679" y2="25.6169" stroke="black"/>
<line x1="294.679" y1="77.6169" x2="325.679" y2="51.6169" stroke="black"/>
<line x1="343.679" y1="287.617" x2="374.679" y2="261.617" stroke="black"/>
<line x1="351.906" y1="295.509" x2="398.906" y2="286.509" stroke="black"/>
<line x1="351.906" y1="295.509" x2="398.906" y2="286.509" stroke="black"/>
<line x1="300.812" y1="95.5368" x2="332.812" y2="82.5368" stroke="black"/>
<line x1="311.812" y1="127.537" x2="343.812" y2="114.537" stroke="black"/>
<line x1="327.812" y1="261.537" x2="359.812" y2="248.537" stroke="black"/>
<line x1="325.812" y1="244.537" x2="357.812" y2="231.537" stroke="black"/>
<line x1="81.7912" y1="83.4543" x2="44.7912" y2="66.4543" stroke="black"/>
<line x1="62.7912" y1="266.454" x2="25.7912" y2="249.454" stroke="black"/>
<line x1="48.7912" y1="288.454" x2="11.7912" y2="271.454" stroke="black"/>
<line x1="124.536" y1="40.1857" x2="108.536" y2="0.185696" stroke="black"/>
<line x1="89.5358" y1="59.1857" x2="73.5358" y2="19.1857" stroke="black"/>
<line x1="74.9251" y1="106.494" x2="41.9251" y2="101.494" stroke="black"/>
<path d="M237 204.138C237 234.038 219.722 231.969 193.489 231.969C167.255 231.969 142 234.038 142 204.138C142 174.238 163.266 150 189.5 150C215.734 150 237 174.238 237 204.138Z" fill="black"/>
<path d="M218 215.351C218 233.218 220.232 231.982 191.893 231.982C161 231.982 161 233.218 161 215.351C161 197.484 173.76 183 189.5 183C205.24 183 218 197.484 218 215.351Z" fill="#FF4242"/>
<path d="M367 308.09C367 381.206 350 427 200.5 427C58 427 31 381.206 31 308.09C31 234.973 102.216 212 195 212C287.784 212 367 234.973 367 308.09Z" fill="#373737"/>
<path d="M421.5 334.227C421.5 357.423 393.681 359.227 368 359.227C341.5 354.727 328.5 344.227 328.5 334.227C323.985 329.727 353.5 306.456 375 305.227C400.681 305.227 421.5 311.031 421.5 334.227Z" fill="#373737"/>
<path d="M317.472 152.524C317.472 226.725 263.637 274.226 189.524 274.226C115.411 274.226 59.5 226.725 59.5 152.524C59.5 113.227 63 -30.7732 198.91 50.4205C310 -26.2734 317.472 110.727 317.472 152.524Z" fill="#373737"/>
<path d="M317.472 152.524C317.472 226.725 263.637 274.226 189.524 274.226C115.411 274.226 59.5 226.725 59.5 152.524C59.5 113.227 63 -30.7732 198.91 50.4205C310 -26.2734 317.472 110.727 317.472 152.524Z" fill="#373737"/>
<ellipse cx="134.5" cy="125.5" rx="35.5" ry="37.5" fill="#0E0E0E"/>
<ellipse cx="244.5" cy="126" rx="32.5" ry="32" fill="#0E0E0E"/>
<path d="M237 112C237 116.418 233.866 120 230 120C226.134 120 223 116.418 223 112C223 107.582 226.134 104 230 104C233.866 104 237 107.582 237 112Z" fill="#F6F6F6"/>
<path d="M258 132C258 135.314 254.866 138 251 138C247.134 138 244 135.314 244 132C244 128.686 247.134 126 251 126C254.866 126 258 128.686 258 132Z" fill="#F6F6F6"/>
<path d="M263 114C263 116.209 260.985 118 258.5 118C256.015 118 254 116.209 254 114C254 111.791 256.015 110 258.5 110C260.985 110 263 111.791 263 114Z" fill="#F6F6F6"/>
<circle cx="134.5" cy="109.5" r="10.5" fill="#F6F6F6"/>
<ellipse cx="116" cy="134.5" rx="8" ry="7.5" fill="#F6F6F6"/>
<circle cx="142.5" cy="132.5" r="5.5" fill="#F6F6F6"/>
<line x1="279.679" y1="51.6169" x2="310.679" y2="25.6169" stroke="black"/>
<line x1="294.679" y1="77.6169" x2="325.679" y2="51.6169" stroke="black"/>
<line x1="343.679" y1="287.617" x2="374.679" y2="261.617" stroke="black"/>
<line x1="351.906" y1="295.509" x2="398.906" y2="286.509" stroke="black"/>
<line x1="351.906" y1="295.509" x2="398.906" y2="286.509" stroke="black"/>
<line x1="300.812" y1="95.5368" x2="332.812" y2="82.5368" stroke="black"/>
<line x1="311.812" y1="127.537" x2="343.812" y2="114.537" stroke="black"/>
<line x1="327.812" y1="261.537" x2="359.812" y2="248.537" stroke="black"/>
<line x1="325.812" y1="244.537" x2="357.812" y2="231.537" stroke="black"/>
<line x1="81.7912" y1="83.4543" x2="44.7912" y2="66.4543" stroke="black"/>
<line x1="62.7912" y1="266.454" x2="25.7912" y2="249.454" stroke="black"/>
<line x1="48.7912" y1="288.454" x2="11.7912" y2="271.454" stroke="black"/>
<line x1="124.536" y1="40.1857" x2="108.536" y2="0.185696" stroke="black"/>
<line x1="89.5358" y1="59.1857" x2="73.5358" y2="19.1857" stroke="black"/>
<line x1="74.9251" y1="106.494" x2="41.9251" y2="101.494" stroke="black"/>
<path d="M198 200L195.402 195.5L200.598 195.5L198 200Z" fill="#D9D9D9"/>
<line x1="178" y1="193.5" x2="202" y2="193.5" stroke="black" stroke-width="3"/>
</svg>
