<svg width="411" height="427" viewBox="0 0 411 427" fill="none" xmlns="http://www.w3.org/2000/svg">
<path d="M356 308.09C356 381.206 339 427 189.5 427C47 427 20 381.206 20 308.09C20 234.973 91.2162 212 184 212C276.784 212 356 234.973 356 308.09Z" fill="#373737"/>
<path d="M410.5 334.227C410.5 357.423 382.681 359.227 357 359.227C330.5 354.727 317.5 344.227 317.5 334.227C312.985 329.727 342.5 306.456 364 305.227C389.681 305.227 410.5 311.031 410.5 334.227Z" fill="#373737"/>
<path d="M306.472 152.524C306.472 226.725 252.637 274.226 178.524 274.226C104.411 274.226 48.5 226.725 48.5 152.524C48.5 113.227 52 -30.7732 187.91 50.4205C299 -26.2734 306.472 110.727 306.472 152.524Z" fill="#373737"/>
<path d="M306.472 152.524C306.472 226.725 252.637 274.226 178.524 274.226C104.411 274.226 48.5 226.725 48.5 152.524C48.5 113.227 52 -30.7732 187.91 50.4205C299 -26.2734 306.472 110.727 306.472 152.524Z" fill="#373737"/>
<ellipse cx="123.5" cy="125.5" rx="35.5" ry="37.5" fill="#0E0E0E"/>
<ellipse cx="233.5" cy="126" rx="32.5" ry="32" fill="#0E0E0E"/>
<path d="M226 112C226 116.418 222.866 120 219 120C215.134 120 212 116.418 212 112C212 107.582 215.134 104 219 104C222.866 104 226 107.582 226 112Z" fill="#F6F6F6"/>
<path d="M247 132C247 135.314 243.866 138 240 138C236.134 138 233 135.314 233 132C233 128.686 236.134 126 240 126C243.866 126 247 128.686 247 132Z" fill="#F6F6F6"/>
<path d="M252 114C252 116.209 249.985 118 247.5 118C245.015 118 243 116.209 243 114C243 111.791 245.015 110 247.5 110C249.985 110 252 111.791 252 114Z" fill="#F6F6F6"/>
<circle cx="123.5" cy="109.5" r="10.5" fill="#F6F6F6"/>
<ellipse cx="105" cy="134.5" rx="8" ry="7.5" fill="#F6F6F6"/>
<circle cx="131.5" cy="132.5" r="5.5" fill="#F6F6F6"/>
<line x1="268.679" y1="51.6169" x2="299.679" y2="25.6169" stroke="black"/>
<line x1="283.679" y1="77.6169" x2="314.679" y2="51.6169" stroke="black"/>
<line x1="332.679" y1="287.617" x2="363.679" y2="261.617" stroke="black"/>
<line x1="340.906" y1="295.509" x2="387.906" y2="286.509" stroke="black"/>
<line x1="340.906" y1="295.509" x2="387.906" y2="286.509" stroke="black"/>
<line x1="289.812" y1="95.5368" x2="321.812" y2="82.5368" stroke="black"/>
<line x1="300.812" y1="127.537" x2="332.812" y2="114.537" stroke="black"/>
<line x1="316.812" y1="261.537" x2="348.812" y2="248.537" stroke="black"/>
<line x1="314.812" y1="244.537" x2="346.812" y2="231.537" stroke="black"/>
<line x1="70.7912" y1="83.4543" x2="33.7912" y2="66.4543" stroke="black"/>
<line x1="51.7912" y1="266.454" x2="14.7912" y2="249.454" stroke="black"/>
<line x1="37.7912" y1="288.454" x2="0.791248" y2="271.454" stroke="black"/>
<line x1="113.536" y1="40.1857" x2="97.5358" y2="0.185696" stroke="black"/>
<line x1="78.5358" y1="59.1857" x2="62.5358" y2="19.1857" stroke="black"/>
<line x1="63.9251" y1="106.494" x2="30.9251" y2="101.494" stroke="black"/>
<path d="M226 204.138C226 234.038 208.722 231.969 182.489 231.969C156.255 231.969 131 234.038 131 204.138C131 174.238 152.266 150 178.5 150C204.734 150 226 174.238 226 204.138Z" fill="black"/>
<path d="M207 215.351C207 233.218 209.232 231.982 180.893 231.982C150 231.982 150 233.218 150 215.351C150 197.484 162.76 183 178.5 183C194.24 183 207 197.484 207 215.351Z" fill="#FF4242"/>
<path d="M356 308.09C356 381.206 339 427 189.5 427C47 427 20 381.206 20 308.09C20 234.973 91.2162 212 184 212C276.784 212 356 234.973 356 308.09Z" fill="#373737"/>
<path d="M410.5 334.227C410.5 357.423 382.681 359.227 357 359.227C330.5 354.727 317.5 344.227 317.5 334.227C312.985 329.727 342.5 306.456 364 305.227C389.681 305.227 410.5 311.031 410.5 334.227Z" fill="#373737"/>
<path d="M306.472 152.524C306.472 226.725 252.637 274.226 178.524 274.226C104.411 274.226 48.5 226.725 48.5 152.524C48.5 113.227 52 -30.7732 187.91 50.4205C299 -26.2734 306.472 110.727 306.472 152.524Z" fill="#373737"/>
<path d="M306.472 152.524C306.472 226.725 252.637 274.226 178.524 274.226C104.411 274.226 48.5 226.725 48.5 152.524C48.5 113.227 52 -30.7732 187.91 50.4205C299 -26.2734 306.472 110.727 306.472 152.524Z" fill="#373737"/>
<ellipse cx="123.5" cy="125.5" rx="35.5" ry="37.5" fill="#0E0E0E"/>
<ellipse cx="233.5" cy="126" rx="32.5" ry="32" fill="#0E0E0E"/>
<path d="M226 112C226 116.418 222.866 120 219 120C215.134 120 212 116.418 212 112C212 107.582 215.134 104 219 104C222.866 104 226 107.582 226 112Z" fill="#F6F6F6"/>
<path d="M247 132C247 135.314 243.866 138 240 138C236.134 138 233 135.314 233 132C233 128.686 236.134 126 240 126C243.866 126 247 128.686 247 132Z" fill="#F6F6F6"/>
<path d="M252 114C252 116.209 249.985 118 247.5 118C245.015 118 243 116.209 243 114C243 111.791 245.015 110 247.5 110C249.985 110 252 111.791 252 114Z" fill="#F6F6F6"/>
<circle cx="123.5" cy="109.5" r="10.5" fill="#F6F6F6"/>
<ellipse cx="105" cy="134.5" rx="8" ry="7.5" fill="#F6F6F6"/>
<circle cx="131.5" cy="132.5" r="5.5" fill="#F6F6F6"/>
<line x1="268.679" y1="51.6169" x2="299.679" y2="25.6169" stroke="black"/>
<line x1="283.679" y1="77.6169" x2="314.679" y2="51.6169" stroke="black"/>
<line x1="332.679" y1="287.617" x2="363.679" y2="261.617" stroke="black"/>
<line x1="340.906" y1="295.509" x2="387.906" y2="286.509" stroke="black"/>
<line x1="340.906" y1="295.509" x2="387.906" y2="286.509" stroke="black"/>
<line x1="289.812" y1="95.5368" x2="321.812" y2="82.5368" stroke="black"/>
<line x1="300.812" y1="127.537" x2="332.812" y2="114.537" stroke="black"/>
<line x1="316.812" y1="261.537" x2="348.812" y2="248.537" stroke="black"/>
<line x1="314.812" y1="244.537" x2="346.812" y2="231.537" stroke="black"/>
<line x1="70.7912" y1="83.4543" x2="33.7912" y2="66.4543" stroke="black"/>
<line x1="51.7912" y1="266.454" x2="14.7912" y2="249.454" stroke="black"/>
<line x1="37.7912" y1="288.454" x2="0.791248" y2="271.454" stroke="black"/>
<line x1="113.536" y1="40.1857" x2="97.5358" y2="0.185696" stroke="black"/>
<line x1="78.5358" y1="59.1857" x2="62.5358" y2="19.1857" stroke="black"/>
<line x1="63.9251" y1="106.494" x2="30.9251" y2="101.494" stroke="black"/>
<path d="M226 204.138C226 234.038 208.722 231.969 182.489 231.969C156.255 231.969 131 234.038 131 204.138C131 174.238 152.266 150 178.5 150C204.734 150 226 174.238 226 204.138Z" fill="black"/>
<path d="M207 215.351C207 233.218 209.232 231.982 180.893 231.982C150 231.982 150 233.218 150 215.351C150 197.484 162.76 183 178.5 183C194.24 183 207 197.484 207 215.351Z" fill="#FF4242"/>
</svg>
