<svg width="356" height="356" viewBox="0 0 356 356" fill="none" xmlns="http://www.w3.org/2000/svg">
<path d="M33.375 178.653V275.322C33.375 286.654 37.9437 298.61 45.2417 306.872C52.6732 315.283 65.326 321.883 79.1655 314.927C89.4895 309.735 98.078 309.542 105.064 314.229C121.767 325.428 145.233 325.428 161.936 314.229C167.053 310.818 170.939 309.661 174.173 309.631C177.407 309.616 181.367 310.699 186.633 314.229C203.35 325.428 226.816 325.428 243.519 314.229C246.678 312.123 252.122 310.714 259.005 310.877C265.739 311.025 272.325 312.657 276.835 314.927C290.674 321.883 303.327 315.283 310.758 306.872C318.056 298.61 322.625 286.654 322.625 275.336V178.653C322.625 98.4785 257.922 33.375 178 33.375C98.078 33.375 33.375 98.4785 33.375 178.653ZM126.87 228.404C141.635 217.37 159.567 211.397 178 211.375C197.061 211.375 214.698 217.709 229.13 228.404C231.425 230.189 232.929 232.801 233.321 235.682C233.714 238.562 232.963 241.482 231.23 243.816C229.497 246.15 226.919 247.713 224.049 248.17C221.178 248.627 218.242 247.943 215.87 246.263C204.939 238.078 191.655 233.645 178 233.625C164.345 233.645 151.061 238.078 140.13 246.263C138.961 247.173 137.621 247.841 136.19 248.226C134.759 248.611 133.265 248.706 131.796 248.506C130.328 248.306 128.914 247.815 127.638 247.061C126.362 246.307 125.25 245.305 124.366 244.115C123.483 242.925 122.846 241.571 122.493 240.131C122.14 238.692 122.079 237.196 122.312 235.733C122.545 234.269 123.068 232.867 123.851 231.608C124.634 230.35 125.66 229.26 126.87 228.404ZM152.042 148.333V155.75C152.042 158.701 150.87 161.53 148.783 163.617C146.697 165.703 143.867 166.875 140.917 166.875C137.966 166.875 135.136 165.703 133.05 163.617C130.964 161.53 129.792 158.701 129.792 155.75V148.333C129.792 145.383 130.964 142.553 133.05 140.467C135.136 138.38 137.966 137.208 140.917 137.208C143.867 137.208 146.697 138.38 148.783 140.467C150.87 142.553 152.042 145.383 152.042 148.333ZM215.083 137.208C218.034 137.208 220.864 138.38 222.95 140.467C225.036 142.553 226.208 145.383 226.208 148.333V155.75C226.208 158.701 225.036 161.53 222.95 163.617C220.864 165.703 218.034 166.875 215.083 166.875C212.133 166.875 209.303 165.703 207.217 163.617C205.13 161.53 203.958 158.701 203.958 155.75V148.333C203.958 145.383 205.13 142.553 207.217 140.467C209.303 138.38 212.133 137.208 215.083 137.208Z" fill="black"/>
</svg>
