<svg width="571" height="556" viewBox="0 0 571 556" fill="none" xmlns="http://www.w3.org/2000/svg">
<path d="M289.5 68C421.776 68 529 180.519 529 319.326V500.432C529.001 507.83 527.199 515.105 523.767 521.567C520.334 528.029 515.385 533.464 509.389 537.354C503.392 541.245 496.548 543.462 489.505 543.796C482.462 544.13 475.456 542.569 469.149 539.262C458.232 533.527 446.062 530.926 433.877 531.721C421.692 532.515 409.923 536.678 399.766 543.786C388.391 551.75 375.023 556 361.35 556C347.676 556 334.309 551.75 322.935 543.786L314.479 537.88C307.082 532.704 298.391 529.941 289.5 529.941C280.609 529.941 271.918 532.704 264.521 537.88L256.065 543.761C244.691 551.725 231.324 555.975 217.65 555.975C203.977 555.975 190.609 551.725 179.234 543.761C169.08 536.657 157.315 532.497 145.135 531.702C132.954 530.908 120.79 533.508 109.875 539.237C103.57 542.549 96.5617 544.114 89.5176 543.784C82.4737 543.454 75.627 541.24 69.6279 537.353C63.6287 533.464 58.6755 528.031 55.2402 521.569C51.8051 515.108 50.0014 507.831 50 500.432V319.326C50.0001 180.519 157.224 68 289.5 68ZM217.65 243.929C204.43 243.929 193.7 260.817 193.7 281.627C193.7 302.437 204.43 319.326 217.65 319.326C230.871 319.326 241.6 302.437 241.6 281.627C241.599 260.818 230.871 243.929 217.65 243.929ZM361.35 243.929C348.129 243.929 337.401 260.818 337.4 281.627C337.4 302.437 348.129 319.326 361.35 319.326C374.57 319.326 385.3 302.437 385.3 281.627C385.3 260.817 374.57 243.929 361.35 243.929Z" fill="#494949"/>
<circle cx="369" cy="274" r="49" fill="#D9D9D9"/>
<path d="M418 274C418 301.062 396.062 323 369 323C341.938 323 320 301.062 320 274C320 246.938 341.938 225 369 225C396.062 225 418 246.938 418 274Z" fill="#D9D9D9"/>
<circle cx="209" cy="274" r="49" fill="#D9D9D9"/>
<circle cx="368.5" cy="274.5" r="41.5" fill="black"/>
<circle cx="208.5" cy="274.5" r="41.5" fill="black"/>
<circle cx="208.5" cy="274.5" r="41.5" fill="black"/>
<path d="M73.7861 104.405C68.8052 85.8156 85.8155 68.8052 104.405 73.7862L168.817 91.0453C187.406 96.0263 193.632 119.263 180.024 132.871L132.871 180.024C119.263 193.632 96.0262 187.406 91.0452 168.817L73.7861 104.405Z" fill="#D9D9D9"/>
<path d="M496.529 104.405C501.51 85.8156 484.5 68.8052 465.911 73.7862L401.499 91.0453C382.91 96.0263 376.683 119.263 390.292 132.871L437.444 180.024C451.053 193.632 474.289 187.406 479.27 168.817L496.529 104.405Z" fill="#D9D9D9"/>
</svg>
