<svg width="150" height="150" viewBox="0 0 276 276" xmlns="http://www.w3.org/2000/svg">
  <defs>
    <linearGradient id="gradDark" x1="0%" y1="0%" x2="100%" y2="100%">
      <stop offset="0%" stop-color="#4B001F" stop-opacity="0.9" />
      <stop offset="100%" stop-color="#1A000C" stop-opacity="1" />
    </linearGradient>

    <filter id="softGlow" x="-50%" y="-50%" width="200%" height="200%">
      <feDropShadow dx="0" dy="0" stdDeviation="5" flood-color="#700018" flood-opacity="0.6"/>
      <feDropShadow dx="0" dy="0" stdDeviation="10" flood-color="#300009" flood-opacity="0.5"/>
    </filter>

    <!-- 신비로운 무지개 빛줄기 그라디언트 -->
    <linearGradient id="rainbowShine" x1="0%" y1="0%" x2="100%" y2="0%">
      <stop offset="0%" stop-color="#9b59b6" stop-opacity="0" />
      <stop offset="25%" stop-color="#8e44ad" stop-opacity="0.7" />
      <stop offset="50%" stop-color="#1abc9c" stop-opacity="0.8" />
      <stop offset="75%" stop-color="#f39c12" stop-opacity="0.7" />
      <stop offset="100%" stop-color="#9b59b6" stop-opacity="0" />
      <animate attributeName="x1" values="-150%;150%" dur="4s" repeatCount="indefinite" />
      <animate attributeName="x2" values="0%;300%" dur="4s" repeatCount="indefinite" />
    </linearGradient>

    <!-- 흐릿한 빛줄기 -->
    <filter id="blurGlow" x="-50%" y="-50%" width="200%" height="200%">
      <feGaussianBlur stdDeviation="7" result="blur"/>
      <feColorMatrix in="blur" type="matrix" values="
        0 0 0 0 0.8
        0 0 0 0 0.4
        0 0 0 0 0.7
        0 0 0 0.6 0
      " result="coloredBlur"/>
      <feBlend in="SourceGraphic" in2="coloredBlur" mode="screen"/>
    </filter>

    <!-- 반짝임 애니메이션 -->
    <radialGradient id="sparkle" cx="50%" cy="50%" r="50%">
      <stop offset="0%" stop-color="#ffffff" stop-opacity="0.8">
        <animate attributeName="stop-opacity" values="0.8;0;0.8" dur="2s" repeatCount="indefinite" />
      </stop>
      <stop offset="100%" stop-color="#ffffff" stop-opacity="0" />
    </radialGradient>
  </defs>

  <!-- 기본 몸체 -->
  <path
    d="M178.732 241.5H224.25C228.825 241.5 233.213 239.683 236.448 236.448C239.683 233.213 241.5 228.825 241.5 224.25V183.659C241.493 182.244 241.138 180.853 240.466 179.608C239.794 178.363 238.827 177.303 237.649 176.52C236.471 175.737 235.118 175.256 233.711 175.119C232.303 174.982 230.883 175.193 229.576 175.734C226.519 176.996 223.244 177.644 219.938 177.643C205.674 177.643 194.062 165.675 194.062 150.981C194.062 136.286 205.674 124.319 219.938 124.319C223.244 124.317 226.519 124.965 229.576 126.227C230.89 126.771 232.317 126.981 233.732 126.84C235.147 126.699 236.505 126.21 237.685 125.417C238.865 124.624 239.831 123.552 240.496 122.296C241.162 121.04 241.507 119.638 241.5 118.216V77.625C241.5 73.05 239.683 68.6624 236.448 65.4274C233.213 62.1924 228.825 60.375 224.25 60.375H185.2C185.362 58.9432 185.441 57.5033 185.438 56.0625C185.437 45.7688 181.348 35.8967 174.07 28.6179C166.791 21.3392 156.919 17.25 146.625 17.25C136.331 17.25 126.459 21.3392 119.18 28.6179C111.902 35.8967 107.812 45.7688 107.812 56.0625C107.809 57.5033 107.888 58.9432 108.05 60.375H69C64.425 60.375 60.0374 62.1924 56.8024 65.4274C53.5674 68.6624 51.75 73.05 51.75 77.625V112.362C50.3182 112.201 48.8783 112.122 47.4375 112.125C37.1438 112.125 27.2717 116.214 19.9929 123.493C12.7142 130.772 8.625 140.644 8.625 150.938C8.625 161.231 12.7142 171.103 19.9929 178.382C27.2717 185.661 37.1438 189.75 47.4375 189.75C48.8783 189.753 50.3182 189.674 51.75 189.513V224.25C51.75 228.825 53.5674 233.213 56.8024 236.448C60.0374 239.683 64.425 241.5 69 241.5H114.518"
    fill="url(#gradDark)"
    filter="url(#softGlow)"
  />

  <!-- 신비로운 빛줄기 레이어 -->
  <path
    d="M178.732 241.5H224.25C228.825 241.5 233.213 239.683 236.448 236.448C239.683 233.213 241.5 228.825 241.5 224.25V183.659C241.493 182.244 241.138 180.853 240.466 179.608C239.794 178.363 238.827 177.303 237.649 176.52C236.471 175.737 235.118 175.256 233.711 175.119C232.303 174.982 230.883 175.193 229.576 175.734C226.519 176.996 223.244 177.644 219.938 177.643C205.674 177.643 194.062 165.675 194.062 150.981C194.062 136.286 205.674 124.319 219.938 124.319C223.244 124.317 226.519 124.965 229.576 126.227C230.89 126.771 232.317 126.981 233.732 126.84C235.147 126.699 236.505 126.21 237.685 125.417C238.865 124.624 239.831 123.552 240.496 122.296C241.162 121.04 241.507 119.638 241.5 118.216V77.625C241.5 73.05 239.683 68.6624 236.448 65.4274C233.213 62.1924 228.825 60.375 224.25 60.375H185.2C185.362 58.9432 185.441 57.5033 185.438 56.0625C185.437 45.7688 181.348 35.8967 174.07 28.6179C166.791 21.3392 156.919 17.25 146.625 17.25C136.331 17.25 126.459 21.3392 119.18 28.6179C111.902 35.8967 107.812 45.7688 107.812 56.0625C107.809 57.5033 107.888 58.9432 108.05 60.375H69C64.425 60.375 60.0374 62.1924 56.8024 65.4274C53.5674 68.6624 51.75 73.05 51.75 77.625V112.362C50.3182 112.201 48.8783 112.122 47.4375 112.125C37.1438 112.125 27.2717 116.214 19.9929 123.493C12.7142 130.772 8.625 140.644 8.625 150.938C8.625 161.231 12.7142 171.103 19.9929 178.382C27.2717 185.661 37.1438 189.75 47.4375 189.75C48.8783 189.753 50.3182 189.674 51.75 189.513V224.25C51.75 228.825 53.5674 233.213 56.8024 236.448C60.0374 239.683 64.425 241.5 69 241.5H114.518"
    fill="url(#rainbowShine)"
    filter="url(#blurGlow)"
    style="mix-blend-mode: screen"
  />

  <!-- 반짝임 -->
  <circle cx="150" cy="80" r="12" fill="url(#sparkle)" />
  <circle cx="90" cy="160" r="8" fill="url(#sparkle)" />
  <circle cx="200" cy="200" r="6" fill="url(#sparkle)" />
</svg>
