<svg width="397" height="427" viewBox="0 0 397 427" fill="none" xmlns="http://www.w3.org/2000/svg">
<path d="M342 308.09C342 381.206 325 427 175.5 427C33 427 6 381.206 6 308.09C6 234.973 77.2162 212 170 212C262.784 212 342 234.973 342 308.09Z" fill="#373737"/>
<path d="M396.5 334.227C396.5 357.423 368.681 359.227 343 359.227C316.5 354.727 303.5 344.227 303.5 334.227C298.986 329.727 328.5 306.456 350 305.227C375.681 305.227 396.5 311.031 396.5 334.227Z" fill="#373737"/>
<path d="M292.472 152.524C292.472 226.725 238.637 274.226 164.524 274.226C90.4115 274.226 34.5 226.725 34.5 152.524C34.5 113.227 38 -30.7732 173.91 50.4205C285 -26.2734 292.472 110.727 292.472 152.524Z" fill="#373737"/>
<path d="M292.472 152.524C292.472 226.725 238.637 274.226 164.524 274.226C90.4115 274.226 34.5 226.725 34.5 152.524C34.5 113.227 38 -30.7732 173.91 50.4205C285 -26.2734 292.472 110.727 292.472 152.524Z" fill="#373737"/>
<ellipse cx="109.5" cy="125.5" rx="35.5" ry="37.5" fill="#0E0E0E"/>
<ellipse cx="219.5" cy="126" rx="32.5" ry="32" fill="#0E0E0E"/>
<path d="M212 112C212 116.418 208.866 120 205 120C201.134 120 198 116.418 198 112C198 107.582 201.134 104 205 104C208.866 104 212 107.582 212 112Z" fill="#F6F6F6"/>
<path d="M233 132C233 135.314 229.866 138 226 138C222.134 138 219 135.314 219 132C219 128.686 222.134 126 226 126C229.866 126 233 128.686 233 132Z" fill="#F6F6F6"/>
<path d="M238 114C238 116.209 235.985 118 233.5 118C231.015 118 229 116.209 229 114C229 111.791 231.015 110 233.5 110C235.985 110 238 111.791 238 114Z" fill="#F6F6F6"/>
<circle cx="109.5" cy="109.5" r="10.5" fill="#F6F6F6"/>
<ellipse cx="91" cy="134.5" rx="8" ry="7.5" fill="#F6F6F6"/>
<circle cx="117.5" cy="132.5" r="5.5" fill="#F6F6F6"/>
<line x1="254.679" y1="51.6169" x2="285.679" y2="25.6169" stroke="black"/>
<line x1="269.679" y1="77.6169" x2="300.679" y2="51.6169" stroke="black"/>
<line x1="318.679" y1="287.617" x2="349.679" y2="261.617" stroke="black"/>
<line x1="326.906" y1="295.509" x2="373.906" y2="286.509" stroke="black"/>
<line x1="326.906" y1="295.509" x2="373.906" y2="286.509" stroke="black"/>
<line x1="275.812" y1="95.5368" x2="307.812" y2="82.5368" stroke="black"/>
<line x1="286.812" y1="127.537" x2="318.812" y2="114.537" stroke="black"/>
<line x1="302.812" y1="261.537" x2="334.812" y2="248.537" stroke="black"/>
<line x1="300.812" y1="244.537" x2="332.812" y2="231.537" stroke="black"/>
<line x1="56.7912" y1="83.4543" x2="19.7912" y2="66.4543" stroke="black"/>
<line x1="37.7912" y1="266.454" x2="0.791248" y2="249.454" stroke="black"/>
<line x1="99.5358" y1="40.1857" x2="83.5358" y2="0.185696" stroke="black"/>
<line x1="64.5358" y1="59.1857" x2="48.5358" y2="19.1857" stroke="black"/>
<line x1="49.9251" y1="106.494" x2="16.9251" y2="101.494" stroke="black"/>
<path d="M171 181L168.402 176.5L173.598 176.5L171 181Z" fill="#D9D9D9"/>
<line x1="151" y1="174.5" x2="175" y2="174.5" stroke="black" stroke-width="3"/>
</svg>
