<svg width="571" height="556" viewBox="0 0 571 556" fill="none" xmlns="http://www.w3.org/2000/svg">
<path d="M289.5 67.9995C421.776 67.9995 529 180.518 529 319.326V500.431C529.001 507.829 527.199 515.105 523.767 521.567C520.334 528.029 515.385 533.464 509.389 537.354C503.392 541.244 496.548 543.462 489.505 543.795C482.462 544.129 475.456 542.568 469.149 539.261C458.232 533.527 446.062 530.926 433.877 531.72C421.692 532.515 409.923 536.677 399.766 543.786C388.391 551.75 375.023 556 361.35 556C347.676 555.999 334.309 551.749 322.935 543.786L314.479 537.879C307.082 532.703 298.391 529.941 289.5 529.941C280.609 529.941 271.918 532.703 264.521 537.879L256.065 543.76C244.691 551.724 231.324 555.974 217.65 555.974C203.977 555.974 190.609 551.724 179.234 543.76C169.08 536.656 157.315 532.496 145.135 531.702C132.954 530.907 120.79 533.507 109.875 539.237C103.57 542.549 96.5617 544.114 89.5176 543.784C82.4737 543.454 75.627 541.24 69.6279 537.352C63.6287 533.464 58.6755 528.031 55.2402 521.569C51.8051 515.107 50.0014 507.83 50 500.431V319.326C50.0001 180.518 157.224 67.9995 289.5 67.9995ZM217.65 243.928C204.43 243.928 193.7 260.817 193.7 281.626C193.7 302.436 204.43 319.326 217.65 319.326C230.871 319.325 241.6 302.436 241.6 281.626C241.599 260.817 230.871 243.929 217.65 243.928ZM361.35 243.928C348.129 243.929 337.401 260.817 337.4 281.626C337.4 302.436 348.129 319.325 361.35 319.326C374.57 319.326 385.3 302.436 385.3 281.626C385.3 260.817 374.57 243.928 361.35 243.928Z" fill="currentColor" />
<circle cx="369" cy="274" r="49" fill="#D9D9D9"/>
<path d="M418 274C418 301.061 396.062 323 369 323C341.938 323 320 301.061 320 274C320 246.938 341.938 225 369 225C396.062 225 418 246.938 418 274Z" fill="#D9D9D9"/>
<circle cx="209" cy="274" r="49" fill="#D9D9D9"/>
<circle cx="368.5" cy="274.5" r="41.5" fill="black"/>
<circle cx="208.5" cy="274.5" r="41.5" fill="black"/>
<circle cx="208.5" cy="274.5" r="41.5" fill="black"/>
<path d="M73.7861 104.405C68.8052 85.8153 85.8155 68.805 104.405 73.786L168.817 91.045C187.406 96.026 193.632 119.263 180.024 132.871L132.871 180.024C119.263 193.632 96.0262 187.406 91.0452 168.816L73.7861 104.405Z" fill="#D9D9D9"/>
<path d="M496.529 104.405C501.51 85.8153 484.5 68.805 465.911 73.786L401.499 91.045C382.91 96.026 376.683 119.263 390.292 132.871L437.444 180.024C451.053 193.632 474.289 187.406 479.27 168.816L496.529 104.405Z" fill="#D9D9D9"/>
<path d="M272.638 334.037C278.639 319.729 298.721 319.211 305.453 333.189L309.809 342.235L321.885 334.36C334.891 325.877 351.815 336.74 349.519 352.098L346.509 372.232L360.224 373.781C375.565 375.513 381.75 394.487 370.377 404.927L364.72 410.12L371.966 416.336C383.675 426.381 378.148 445.538 362.888 447.802L348.133 449.991L351.836 474.955C353.978 489.397 338.939 500.247 325.909 493.66L312.32 486.79L308.183 495.369C301.837 508.523 283.292 509.042 276.221 496.263L269.428 483.987L251.086 493.261C237.907 499.925 222.753 488.757 225.216 474.196L228.33 455.781L214.733 454.039C200.081 452.161 193.804 434.407 204.019 423.737L214.987 412.281L207.086 405.245C195.421 394.857 201.616 375.559 217.148 373.903L231.761 372.344L227.776 356.461C223.978 341.321 239.933 328.853 253.706 336.199L268.434 344.054L272.638 334.037Z" fill="#D9D9D9"/>
</svg>
